<?xml version="1.0" encoding="UTF-8" standalone="no"?>
<svg
   height="144"
   width="144"
   version="1.1"
   id="svg6"
   sodipodi:docname="rust-logo-center.svg"
   inkscape:version="1.1.1 (3bf5ae0d25, 2021-09-20, custom)"
   xmlns:inkscape="http://www.inkscape.org/namespaces/inkscape"
   xmlns:sodipodi="http://sodipodi.sourceforge.net/DTD/sodipodi-0.dtd"
   xmlns="http://www.w3.org/2000/svg"
   xmlns:svg="http://www.w3.org/2000/svg"
   xmlns:rdf="http://www.w3.org/1999/02/22-rdf-syntax-ns#">
  <defs
     id="defs10" />
  <sodipodi:namedview
     id="namedview8"
     pagecolor="#ffffff"
     bordercolor="#999999"
     borderopacity="1"
     inkscape:pageshadow="0"
     inkscape:pageopacity="0"
     inkscape:pagecheckerboard="0"
     showgrid="false"
     inkscape:zoom="4"
     inkscape:cx="97.5"
     inkscape:cy="86"
     inkscape:window-width="1920"
     inkscape:window-height="1051"
     inkscape:window-x="0"
     inkscape:window-y="0"
     inkscape:window-maximized="1"
     inkscape:current-layer="svg6" />
  <path
     d="m 72,24.73 c -26.06,0 -47.27,21.22 -47.27,47.27 0,26.05 21.22,47.27 47.27,47.27 26.05,0 47.27,-21.22 47.27,-47.27 C 119.27,45.95 98.05,24.73 72,24.73 Z m -0.07,4.2 c 1.680761,0.04353 3.02056,1.423255 3.02,3.11 0,4.146665 -6.22,4.146665 -6.22,0 -7.34e-4,-1.753376 1.447359,-3.160741 3.2,-3.11 z m 7.12,5.12 c 11.050222,2.069744 20.631432,8.893613 26.2,18.66 l -3.67,8.28 c -0.63,1.43 0.02,3.11 1.44,3.75 l 7.06,3.13 c 0.219,2.206835 0.24577,4.428529 0.08,6.64 h -3.93 c -0.39,0 -0.55,0.26 -0.55,0.64 v 1.8 c 0,4.24 -2.39,5.17 -4.49,5.4 -2,0.23 -4.21,-0.84 -4.49,-2.06 -1.18,-6.63 -3.14,-8.04 -6.24,-10.49 3.85,-2.44 7.85,-6.05 7.85,-10.87 0,-5.21 -3.57,-8.49 -6,-10.1 -3.42,-2.25 -7.2,-2.7 -8.22,-2.7 H 43.49 C 49.104011,39.858406 56.62907,35.6126 64.9,34.05 l 4.79,5.02 c 1.08,1.13 2.87,1.18 4,0.09 z m -44.2,23.02 c 1.682359,0.04871 3.020705,1.426936 3.02,3.11 0,4.146665 -6.22,4.146665 -6.22,0 -7.34e-4,-1.753376 1.447359,-3.160741 3.2,-3.11 z M 109,57.21 c 1.68236,0.04871 3.0207,1.426936 3.02,3.11 0,4.146665 -6.22,4.146665 -6.22,0 -7.3e-4,-1.753376 1.44736,-3.160741 3.2,-3.11 z M 46.13,82.15 H 35.19 C 33.83888,77.40544 33.41782,72.444402 33.95,67.54 l 6.7,-2.98 c 1.43,-0.64 2.08,-2.31 1.44,-3.74 l -1.38,-3.11 h 5.42 v 24.44 m 17.2,-24.18 h 12.91 c 0.67,0 4.71,0.77 4.71,3.8 0,2.51 -3.1,3.41 -5.65,3.41 H 63.32 Z m 9.14,36.41 c 0.35,0 0.59,-0.06 0.59,-0.39 V 82.93 c 0,-0.32 -0.24,-0.39 -0.59,-0.39 h -9.15 l 0.01,-7.01 h 9.89 c 0.9,0 4.83,0.26 6.08,5.28 0.39,1.54 1.26,6.56 1.85,8.17 0.59,1.8 2.98,5.4 5.53,5.4 h 16.14 c -1.08168,1.448565 -2.26464,2.818663 -3.54,4.1 l -6.57,-1.41 c -1.53,-0.33 -3.04,0.65 -3.37,2.18 l -1.56,7.28 c -10.151161,4.59844 -21.802519,4.54367 -31.91,-0.15 L 54.31,99.1 C 53.98,97.57 52.48,96.59 50.95,96.92 L 44.52,98.3 C 43.326786,97.069166 42.217621,95.75955 41.2,94.38 h 31.27 m -23.57,6.48 c 1.682359,0.0487 3.020705,1.42694 3.02,3.11 0,4.14666 -6.22,4.14666 -6.22,0 -7.34e-4,-1.75338 1.447359,-3.16074 3.2,-3.11 z M 94.95,101 c 1.682359,0.0487 3.020705,1.42694 3.02,3.11 0,4.14666 -6.22,4.14666 -6.22,0 -7.34e-4,-1.75338 1.447359,-3.16074 3.2,-3.11 z"
     id="path2"
     sodipodi:nodetypes="sssssccccccccccssscccscscccccsccssccscccccccccssscccsssccsccscccccccccccsccssccs" />
  <metadata
     id="metadata2405">
    <rdf:RDF />
  </metadata>
</svg>
